<svg id="Layer_1" data-name="Layer 1" xmlns="http://www.w3.org/2000/svg" viewBox="0 0 3450 34" width="3450px" height="34px"><path d="M2271.25,0c-14.37,0-14.37,14-28.75,14s-14.37-14-28.75-14S2199.38,14,2185,14s-14.38-14-28.75-14-14.38,14-28.75,14-14.37-14-28.75-14S2084.39,14,2070,14s-14.37-14-28.75-14-14.37,14-28.75,14-14.37-14-28.75-14S1969.39,14,1955,14s-14.37-14-28.75-14-14.37,14-28.74,14-14.38-14-28.75-14S1854.41,14,1840,14s-14.37-14-28.74-14-14.38,14-28.75,14-14.38-14-28.75-14S1739.41,14,1725,14s-14.37-14-28.75-14-14.37,14-28.75,14S1653.17,0,1638.8,0s-14.38,14-28.75,14-14.38-14-28.76-14-14.37,14-28.75,14-14.37-14-28.75-14S1509.42,14,1495,14s-14.37-14-28.75-14-14.37,14-28.75,14-14.38-14-28.75-14S1394.41,14,1380,14s-14.38-14-28.75-14-14.38,14-28.75,14-14.38-14-28.75-14S1279.41,14,1265,14s-14.38-14-28.76-14-14.37,14-28.75,14-14.38-14-28.76-14S1164.38,14,1150,14V34H2300V14C2285.63,14,2285.63,0,2271.25,0Z" fill="#fff"/><path d="M3421.25,0c-14.37,0-14.37,14-28.75,14s-14.37-14-28.75-14S3349.38,14,3335,14s-14.38-14-28.75-14-14.38,14-28.75,14-14.37-14-28.75-14S3234.39,14,3220,14s-14.37-14-28.75-14-14.37,14-28.75,14-14.37-14-28.75-14S3119.39,14,3105,14s-14.37-14-28.75-14-14.37,14-28.74,14-14.38-14-28.75-14S3004.41,14,2990,14s-14.37-14-28.74-14-14.38,14-28.75,14-14.38-14-28.75-14S2889.41,14,2875,14s-14.37-14-28.75-14-14.37,14-28.75,14S2803.17,0,2788.8,0s-14.38,14-28.75,14-14.38-14-28.76-14-14.37,14-28.75,14-14.37-14-28.75-14S2659.42,14,2645,14s-14.37-14-28.75-14-14.37,14-28.75,14-14.38-14-28.75-14S2544.41,14,2530,14s-14.38-14-28.75-14-14.38,14-28.75,14-14.38-14-28.75-14S2429.41,14,2415,14s-14.38-14-28.76-14-14.37,14-28.75,14-14.38-14-28.76-14S2314.38,14,2300,14V34H3450V14C3435.63,14,3435.63,0,3421.25,0Z" fill="#fff"/><path d="M1121.25,0c-14.37,0-14.37,14-28.75,14s-14.37-14-28.75-14S1049.38,14,1035,14s-14.38-14-28.75-14-14.38,14-28.75,14S963.14,0,948.76,0,934.39,14,920,14,905.64,0,891.26,0s-14.37,14-28.75,14S848.14,0,833.76,0,819.39,14,805,14,790.65,0,776.27,0,761.9,14,747.53,14,733.15,0,718.78,0,704.41,14,690,14,675.66,0,661.29,0s-14.38,14-28.75,14S618.16,0,603.79,0,589.41,14,575,14,560.67,0,546.29,0s-14.37,14-28.75,14S503.17,0,488.8,0s-14.38,14-28.75,14S445.67,0,431.29,0s-14.37,14-28.75,14S388.17,0,373.79,0,359.42,14,345,14,330.67,0,316.29,0s-14.37,14-28.75,14S273.16,0,258.79,0,244.41,14,230,14,215.66,0,201.29,0s-14.38,14-28.75,14S158.16,0,143.79,0,129.41,14,115,14,100.65,0,86.27,0,71.9,14,57.52,14,43.14,0,28.76,0,14.38,14,0,14V34H1150V14C1135.63,14,1135.63,0,1121.25,0Z" fill="#fff"/></svg>